Coordinates
version=1
nRows=29
nColumns=24
inDegrees=yes

Units are S.I. units (second, meters, Newtons, ...)
Angles are in degrees.

endheader
time	pelvis_tilt	pelvis_list	pelvis_rotation	pelvis_tx	pelvis_ty	pelvis_tz	hip_flexion_r	hip_adduction_r	hip_rotation_r	knee_angle_r	ankle_angle_r	subtalar_angle_r	mtp_angle_r	hip_flexion_l	hip_adduction_l	hip_rotation_l	knee_angle_l	ankle_angle_l	subtalar_angle_l	mtp_angle_l	lumbar_extension	lumbar_bending	lumbar_rotation
      0.55400000	     -0.64925123	      4.99410389	      4.62672636	     -0.78547201	      0.99309275	      0.25221481	     24.53127591	     -6.68592798	    -10.11564205	      1.58680419	      2.16296931	     -5.79507554	     -6.40457844	    -14.46394817	      6.01938580	     -2.39370434	     -6.94223989	     13.39317067	     -4.77223347	     -9.32118534	     -9.90070214	     -5.39452663	     -3.84322739
      0.55816667	     -0.51672461	      4.87601872	      4.78875605	     -0.77937444	      0.99271812	      0.25215130	     24.42485582	     -6.60774140	    -10.08770614	      1.01073622	      2.01845160	     -6.25888926	     -6.34442648	    -14.78103611	      5.78130208	     -2.22636708	     -7.31670609	     13.42986286	     -4.74134722	     -9.34760904	    -10.02139599	     -5.15630993	     -4.02059293
      0.56233333	     -0.31100179	      4.72493634	      4.95410542	     -0.77320391	      0.99250451	      0.25210015	     24.21123361	     -6.48789528	    -10.10840884	      0.44769364	      1.82313301	     -6.72380831	     -6.26773050	    -15.16372383	      5.49298925	     -2.08104865	     -7.71182226	     13.44699513	     -4.66740936	     -9.36254403	    -10.21588099	     -4.86956495	     -4.21406720
      0.56650000	     -0.11177475	      4.56892021	      5.11117498	     -0.76696851	      0.99231380	      0.25208193	     23.99058292	     -6.35452037	    -10.13210363	     -0.11520940	      1.56556740	     -7.19402195	     -6.18074847	    -15.52998258	      5.19718786	     -1.95800251	     -8.12193360	     13.44379628	     -4.57473756	     -9.36137305	    -10.39322837	     -4.57511635	     -4.38923072
      0.57066667	      0.09447514	      4.41394741	      5.26261102	     -0.76070491	      0.99215733	      0.25208913	     23.75439212	     -6.21462832	    -10.17055624	     -0.68152856	      1.25714714	     -7.69536072	     -6.09812310	    -15.88959284	      4.90017746	     -1.82694167	     -8.56426790	     13.43191128	     -4.49126768	     -9.34497327	    -10.56087678	     -4.28112048	     -4.53845090
      0.57483333	      0.32033079	      4.23244727	      5.39231687	     -0.75437693	      0.99208393	      0.25218989	     23.46861088	     -6.02710232	    -10.19301324	     -1.19611402	      0.84578750	     -8.17638189	     -5.97382645	    -16.24320632	      4.56853095	     -1.77541920	     -9.04324921	     13.34493951	     -4.38760697	     -9.30111715	    -10.76234399	     -3.96032809	     -4.73420941
      0.57900000	      0.54491459	      4.04713617	      5.52211810	     -0.74802737	      0.99204079	      0.25232079	     23.17229970	     -5.82942187	    -10.22582111	     -1.69662131	      0.37977937	     -8.70095192	     -5.83084836	    -16.57703304	      4.22987992	     -1.70944968	     -9.55698098	     13.25522853	     -4.28547054	     -9.22813107	    -10.95946359	     -3.64422875	     -4.88138300
      0.58316667	      0.74849269	      3.86641645	      5.64315145	     -0.74165831	      0.99200475	      0.25249664	     22.88784257	     -5.62905533	    -10.25051863	     -2.17506119	     -0.16179125	     -9.24229579	     -5.67417372	    -16.86090191	      3.89629633	     -1.66855881	    -10.12415957	     13.14896945	     -4.17194031	     -9.12593255	    -11.12283660	     -3.33409757	     -5.00706723
      0.58733333	      0.92444822	      3.68691594	      5.74956418	     -0.73526156	      0.99196635	      0.25273013	     22.62339346	     -5.42124405	    -10.27299502	     -2.62613367	     -0.79135890	     -9.79597118	     -5.52243561	    -17.08977909	      3.56780182	     -1.64709287	    -10.73756827	     13.00390981	     -4.07544275	     -9.00585661	    -11.25083340	     -3.03688190	     -5.10032366
      0.59150000	      1.11368490	      3.49613144	      5.83788288	     -0.72881390	      0.99199455	      0.25300189	     22.33150558	     -5.19085715	    -10.30439675	     -3.04455217	     -1.52421092	    -10.36901898	     -5.38274711	    -17.31982430	      3.22926781	     -1.64983398	    -11.36499000	     12.82028776	     -3.97650095	     -8.87375930	    -11.37980924	     -2.72386175	     -5.16837785
      0.59566667	      1.27009511	      3.30676620	      5.90140325	     -0.72234169	      0.99201894	      0.25335260	     22.06616472	     -4.95201961	    -10.31170716	     -3.43169559	     -2.32585857	    -10.91073449	     -5.25212840	    -17.48224584	      2.89960349	     -1.68054840	    -12.05808634	     12.59285687	     -3.88408221	     -8.73241279	    -11.47065561	     -2.42162522	     -5.22044899
      0.59983333	      1.46702270	      3.09259450	      5.93191552	     -0.71585945	      0.99213540	      0.25380440	     21.74624394	     -4.66442682	    -10.28903561	     -3.77823418	     -3.17451206	    -11.50009066	     -5.09979059	    -17.65841154	      2.54077228	     -1.78363714	    -12.79780630	     12.32046873	     -3.77901420	     -8.54702121	    -11.60943212	     -2.10111531	     -5.25549233
      0.60400000	      1.61940686	      2.88170193	      5.93982458	     -0.70934470	      0.99223531	      0.25431177	     21.47545294	     -4.37743812	    -10.25720591	     -4.11872858	     -4.06143287	    -12.05020653	     -4.94470083	    -17.75987987	      2.19573176	     -1.90873130	    -13.58392835	     12.01306711	     -3.67772220	     -8.33565170	    -11.69382158	     -1.79602052	     -5.24884824
      0.60816667	      1.86640463	      2.66012444	      5.82471484	     -0.70284694	      0.99246291	      0.25515750	     21.11606858	     -4.01160578	    -10.08099453	     -4.43430203	     -5.00992593	    -12.65412886	     -4.61134606	    -17.94071178	      1.84002619	     -2.23467242	    -14.41152027	     11.68461701	     -3.41320741	     -7.84193084	    -11.90157510	     -1.50795642	     -5.21349297
      0.61233333	      1.85491758	      2.48177221	      5.60664346	     -0.69626718	      0.99229273	      0.25619095	     21.09010273	     -3.68198180	     -9.77561423	     -4.83439323	     -5.96050484	    -13.32755163	     -0.25580308	    -17.82968712	      1.59605480	     -2.60233159	    -15.27544432	     11.15020377	     -3.45756788	     -0.38683137	    -11.78250024	     -1.32645990	     -4.74759225
      0.61650000	      1.97454202	      2.23783563	      5.69841932	     -0.68974987	      0.99255630	      0.25647127	     20.82080578	     -3.41924100	     -9.93671625	     -5.14001071	     -6.83521115	    -13.69414148	     -0.27623300	    -17.77046063	      1.20532179	     -2.63163392	    -16.27217059	     10.72960522	     -3.43376298	     -0.30200185	    -11.81773214	     -0.95174374	     -4.89386785
      0.62066667	      2.12282757	      2.00399893	      5.64608711	     -0.68323518	      0.99284718	      0.25708467	     20.55035144	     -3.10332915	     -9.90868067	     -5.45870369	     -7.72192815	    -14.12885667	     -0.28787090	    -17.73091409	      0.85159900	     -2.81601272	    -17.28955925	     10.21519720	     -3.43369368	     -0.17665507	    -11.89394120	     -0.62694412	     -4.86659963
      0.62483333	      2.27850240	      1.76526565	      5.45110673	     -0.67673615	      0.99311733	      0.25808035	     20.31281350	     -2.71916436	     -9.70436921	     -5.81617146	     -8.60531358	    -14.64147386	     -0.29292207	    -17.67704408	      0.50405378	     -3.21388895	    -18.35614399	      9.69269640	     -3.23819678	      0.15573583	    -11.99670131	     -0.34541931	     -4.69931222
      0.62900000	      2.33975760	      1.52989562	      5.27764843	     -0.67022133	      0.99330567	      0.25899382	     20.17963342	     -2.36779811	     -9.54089290	     -6.20301059	     -9.40999493	    -15.07776779	     -0.29652670	    -17.47602962	      0.17124492	     -3.55336494	    -19.50342263	      9.08625931	     -3.19068551	      0.59999378	    -11.97557301	     -0.06803205	     -4.47245372
      0.63316667	      2.40018163	      1.27994398	      5.07532658	     -0.66370663	      0.99352334	      0.25996814	     20.05381437	     -1.99561334	     -9.35909494	     -6.60791910	    -10.13853384	    -15.46344366	     -0.30367443	    -17.23711553	     -0.17709914	     -3.93427030	    -20.71397007	      8.42906835	     -3.14678912	      1.22587986	    -11.95262977	      0.21845561	     -4.22469457
      0.63733333	      2.44584768	      1.04270135	      4.96163418	     -0.65721899	      0.99382824	      0.26055342	     19.94485966	     -1.71170645	     -9.38099901	     -7.07044144	    -10.67227521	    -15.48907567	     -0.30893256	    -16.94264449	     -0.49736858	     -4.11246085	    -21.96698030	      7.66673498	     -3.36416029	      1.35470076	    -11.91742052	      0.54653328	     -4.09661038
      0.64150000	      2.48623462	      0.77156903	      4.73871769	     -0.65080498	      0.99406442	      0.26159632	     19.85610750	     -1.31507700	     -9.17224475	     -7.51379108	    -11.32341940	    -15.97378307	     -0.32389866	    -16.58409546	     -0.87754508	     -4.52271211	    -23.35017683	      7.01408753	     -3.33740072	      1.85372967	    -11.88860718	      0.85637974	     -3.79284560
      0.64566667	      2.44047224	      0.54073630	      4.42661488	     -0.64433659	      0.99418626	      0.26279500	     19.88715598	     -0.95018439	     -8.88616395	     -8.03404456	    -11.72340115	    -16.10929480	     -0.82513295	    -16.12459166	     -1.19433526	     -5.00981648	    -24.72931261	      6.05650350	     -3.49852019	     12.52619695	    -11.75096612	      1.07218158	     -3.47246882
      0.64983333	      2.50497579	      0.25267584	      4.25551276	     -0.63793418	      0.99457537	      0.26359782	     19.75725029	     -0.58666120	     -8.83218265	     -8.50460186	    -12.12986846	    -16.20160443	     -0.82648073	    -15.72129739	     -1.60057504	     -5.31027350	    -26.20079723	      5.24989164	     -3.60580278	     12.55897979	    -11.75141739	      1.42991710	     -3.23736606
      0.65400000	      2.52077384	     -0.03024560	      4.01343461	     -0.63155646	      0.99486513	      0.26459209	     19.69571716	     -0.20274081	     -8.67488011	     -9.00358425	    -12.45207529	    -16.27746505	     -0.83344273	    -15.23461739	     -1.99755150	     -5.68982523	    -27.73502588	      4.38594112	     -3.73815057	     12.62826493	    -11.69901308	      1.74208245	     -2.95962695
      0.65816667	      2.58711284	     -0.30130182	      3.82526957	     -0.62524365	      0.99529762	      0.26539867	     19.57145289	      0.13692471	     -8.60621437	     -9.52605578	    -12.57975774	    -16.20466643	     -0.83626554	    -14.76779756	     -2.38617275	     -5.95286530	    -29.28944134	      3.41110433	     -3.94819660	     12.65638144	    -11.72006873	      2.08216382	     -2.81043561
      0.66233333	      2.45142226	     -0.57379838	      3.47394742	     -0.61896567	      0.99529031	      0.26674561	     19.71236538	      0.55230534	     -8.29067322	    -10.10732930	    -12.74555310	    -16.38335414	     -0.86882721	    -14.04042198	     -2.78400301	     -6.45206229	    -30.98186660	      2.57084526	     -3.99520318	     12.82446039	    -11.51155729	      2.33187998	     -2.33861069
      0.66650000	      2.45947228	     -0.87743088	      3.23477284	     -0.61271992	      0.99559926	      0.26767693	     19.64719528	      0.94012739	     -8.18722674	    -10.61987369	    -12.85341418	    -16.27044566	     -0.89350830	    -13.43831695	     -3.22047145	     -6.77668081	    -32.67500354	      1.66325735	     -4.26406013	     12.92041828	    -11.47106119	      2.67526525	     -2.08410393
      0.67066667	      2.52715805	     -1.18199272	      3.03815855	     -0.60654232	      0.99603218	      0.26855384	     19.49609273	      1.32305270	     -8.09721408	    -11.11914454	    -12.77201520	    -16.16171283	     -0.90032527	    -12.86603245	     -3.67305768	     -7.02458433	    -34.38556357	      0.68527755	     -4.55052222	     12.94919057	    -11.51291502	      3.03518659	     -1.92753313
